<?xml version="1.0" encoding="UTF-8" standalone="no"?>
<!-- Generator: Adobe Illustrator 18.0.0, SVG Export Plug-In . SVG Version: 6.00 Build 0)  -->

<svg
   version="1.1"
   id="Layer_1"
   x="0px"
   y="0px"
   viewBox="0 0 113.69714 101.23842"
   enable-background="new 0 0 841.9 595.3"
   xml:space="preserve"
   sodipodi:docname="hold_4.svg"
   width="113.69714"
   height="101.23843"
   inkscape:version="1.4.1 (93de688d07, 2025-03-30)"
   xmlns:inkscape="http://www.inkscape.org/namespaces/inkscape"
   xmlns:sodipodi="http://sodipodi.sourceforge.net/DTD/sodipodi-0.dtd"
   xmlns="http://www.w3.org/2000/svg"
   xmlns:svg="http://www.w3.org/2000/svg"><defs
   id="defs26">
	
	
	
	
	
	
	
	

		
		
		
	
		
		
		
		
	
		
		
		
		
	
		
		
		
		
		
	
		
		
		
		
	
		
		
		
	
		
		
		
		
	
		
		
		
		
	
			
			
		
			
			
		
			
			
		
			
			
		
			
			
		
			
			
		
			
			
		
			
			
		
			
			
		</defs><sodipodi:namedview
   id="namedview26"
   pagecolor="#505050"
   bordercolor="#eeeeee"
   borderopacity="1"
   inkscape:showpageshadow="0"
   inkscape:pageopacity="0"
   inkscape:pagecheckerboard="0"
   inkscape:deskcolor="#505050"
   inkscape:zoom="0.97933817"
   inkscape:cx="-252.21114"
   inkscape:cy="192.47693"
   inkscape:window-width="1536"
   inkscape:window-height="792"
   inkscape:window-x="0"
   inkscape:window-y="0"
   inkscape:window-maximized="1"
   inkscape:current-layer="Layer_1" />
<path
   fill="#f26522"
   d="m -124.00133,1.5267283 c -10.7,5.3 -33.1,15.4999997 -56.8,20.4999997 -7.6,1.6 -13.5,7.5 -14.8,15.2 -1.1,6.2 -1.7,14 -0.6,22 1.2,8.9 8.6,15.6 17.6,16.1 13.7,0.8 36.5,4.800001 55.2,21.600001 5.7,5.099991 14.1,6.099991 20.9,2.599998 8.300004,-4.199998 19.000004,-11.199998 27.700004,-22.399999 5,-6.5 5.5,-15.5 0.8,-22.2 -4.4,-6.3 -9.3,-15.9 -10.3,-28.7 -0.4,-4.5 -2.2,-8.7 -5.4,-11.8 -4.1,-4.1 -10.300004,-9.3999997 -17.600004,-12.9999997 -5.3,-2.5000001 -11.5,-2.5000001 -16.7,0.1 z"
   id="path1"
   style="fill:#f26522;fill-opacity:0;stroke:#000000;stroke-width:3;stroke-dasharray:none;stroke-opacity:1" /><path
   fill="#d95d98"
   d="m -479.40134,23.026728 c 0,0 -6,-3.4 -9.4,-12.7 -3.4,-9.2999997 -18.09999,-10.69999973 -26.79999,-3.3999997 -8.7,7.3999997 -49.6,8.6999997 -66.4,16.0999997 -16.8,7.4 -47.5,10.1 -46.5,28.8 1,18.7 16.4,21.5 19,15.4 2.7,-6 35,5.4 44,12.100001 9,6.7 36.5,24.099991 59.3,18.799998 22.79999,-5.299998 10.09999,-21.499999 12.69999,-29.499999 2.8,-8.1 23.5,-32.9 14.1,-45.6 z"
   id="path4"
   style="fill:#d95d98;fill-opacity:0;stroke:#000000;stroke-width:3;stroke-dasharray:none;stroke-opacity:1" /><path
   fill="#4eba6e"
   d="m -178.20133,393.52672 c 0,0 -21.7,-33 -0.7,-87.4 21,-54.4 67.6,-85.6 77.8,-80.4 10.200004,5.2 -4,38.1 14.700004,56.7 18.7,18.6 13.7,14.9 0.8,48.1 -12.900005,33.3 -10.7,53.8 -41.800004,61.7 -31.1,7.9 -40.3,14.9 -50.8,1.3 z"
   id="path7"
   style="fill:#4eba6e;fill-opacity:0;stroke:#000000;stroke-width:3;stroke-dasharray:none;stroke-opacity:1" /><path
   fill="#f8be37"
   d="m 92.798674,367.12672 c 0,0 24.099996,-16.1 29.499996,-44.9 5.4,-28.8 -3.4,-49.6 -10.7,-51.6 -7.4,-2 -22.099996,6 -27.499996,3.4 -5.4,-2.7 -8.9,-14.3 -27.7,-14.3 -18.8,0 -30.6,27.4 -36.7,29.9 -6,2.5 -27.7999999,-7.9 -29.7,0 -1.6,6.9 3.9000001,52.4 33.4,66.9 5.8,2.9 12.9,0.5 15.8,-5.3 2.5,-5 7.3,-10.2 16.2,-10.2 17.3,-0.2 -2.8,41.5 37.4,26.1 z"
   id="path10"
   style="fill:#f8be37;fill-opacity:0;stroke:#000000;stroke-width:3;stroke-dasharray:none;stroke-opacity:1" /><path
   fill="#1b86c8"
   d="m 13.498674,289.62672 v 0 c 0,0 0.1,0 0,0 z"
   id="path12" /><path
   fill="#42bfb9"
   d="m -472.10134,271.52672 c 0,0 -7.7,-22.1 -28.6,-24.5 -20.89999,-2.4 -57.09999,9.7 -82.89999,3.8 -25.9,-5.9 -41.2,9 -37,61.2 4.2,52.2 5.8,73.4 37.7,78.9 31.9,5.5 84.69999,-16.5 102.69999,-43.4 18,-26.9 12.6,-67.4 8.1,-76 z"
   id="path14"
   style="fill:#42bfb9;fill-opacity:0;stroke:#000000;stroke-width:3;stroke-dasharray:none;stroke-opacity:1" /><path
   fill="#955ba5"
   d="m 2.2986741,31.226728 c 0,0 3.4,-18.8 28.7999999,-25.4999997 25.4,-6.70000006 71.099996,-6.70000006 77.099996,9.3999997 6,16.1 8.6,77.100001 -17.499996,83.799999 -26.1,6.699993 -32.1,-29.499999 -41.5,-36.899999 -9.3,-7.3 -54.2999999,-0.6 -46.8999999,-30.8 z"
   id="path17"
   style="fill:#955ba5;fill-opacity:0;stroke:#000000;stroke-width:3;stroke-dasharray:none;stroke-opacity:1" /><path
   fill="#f15d4f"
   d="m -283.10133,49.126728 c 0,0 -23.50001,-12.2 -34.90001,-34.3 -11.4,-22.0999997 -30.2,-38.8 -52.3,-34.1 -22.1,4.7 -33.5,44.5 -19.4,44.5 14.1,0 12.1,12.2 12.1,12.2 0,0 -28.1,24.5 -23.8,47.100001 4.3,22.699991 32.4,42.899991 58.9,34.899991 26.5,-7.8 96.90001,-46.999992 59.40001,-70.299992 z"
   id="path19"
   style="fill:#f15d4f;fill-opacity:0;stroke:#000000;stroke-width:3;stroke-dasharray:none;stroke-opacity:1" /><path
   fill="#2e95d2"
   d="m -265.70133,263.22672 c 0,0 -6.8,-7.4 -22.8,-6.7 -16.00001,0.7 -33.10001,-9 -41.50001,-21.5 -12.5,-18.5 -73.1,-6.7 -61.7,33.5 11.4,40.2 -12.7,57 -16.1,92.5 -3.4,35.5 59.7,59 74.4,28.2 14.7,-30.8 26.9,-67.7 52.60001,-79.8 25.8,-12 33.9,-24.7 15.1,-46.2 z"
   id="path22"
   style="fill:#2e95d2;fill-opacity:0;stroke:#000000;stroke-width:3;stroke-dasharray:none;stroke-opacity:1" />
</svg>
