<?xml version="1.0" encoding="UTF-8" standalone="no"?>
<!-- Generator: Adobe Illustrator 18.0.0, SVG Export Plug-In . SVG Version: 6.00 Build 0)  -->

<svg
   version="1.1"
   id="Layer_1"
   x="0px"
   y="0px"
   viewBox="0 0 129.03667 105.03188"
   enable-background="new 0 0 841.9 595.3"
   xml:space="preserve"
   sodipodi:docname="hold_3.svg"
   width="129.03667"
   height="105.03188"
   inkscape:version="1.4.1 (93de688d07, 2025-03-30)"
   xmlns:inkscape="http://www.inkscape.org/namespaces/inkscape"
   xmlns:sodipodi="http://sodipodi.sourceforge.net/DTD/sodipodi-0.dtd"
   xmlns="http://www.w3.org/2000/svg"
   xmlns:svg="http://www.w3.org/2000/svg"><defs
   id="defs26">
	
	
	
	
	
	
	
	

		
		
		
	
		
		
		
		
	
		
		
		
		
	
		
		
		
		
		
	
		
		
		
		
	
		
		
		
	
		
		
		
		
	
		
		
		
		
	
			
			
		
			
			
		
			
			
		
			
			
		
			
			
		
			
			
		
			
			
		
			
			
		
			
			
		</defs><sodipodi:namedview
   id="namedview26"
   pagecolor="#505050"
   bordercolor="#eeeeee"
   borderopacity="1"
   inkscape:showpageshadow="0"
   inkscape:pageopacity="0"
   inkscape:pagecheckerboard="0"
   inkscape:deskcolor="#505050"
   inkscape:zoom="0.97933817"
   inkscape:cx="-54.118181"
   inkscape:cy="194.51912"
   inkscape:window-width="1536"
   inkscape:window-height="792"
   inkscape:window-x="0"
   inkscape:window-y="0"
   inkscape:window-maximized="1"
   inkscape:current-layer="Layer_1" />
<path
   fill="#f26522"
   d="m 74.284685,3.4640408 c -10.7,5.3 -33.1,15.5000002 -56.8,20.5000002 -7.5999998,1.6 -13.4999998,7.5 -14.7999998,15.2 -1.1,6.2 -1.69999999,14 -0.6,22 1.2,8.9 8.5999998,15.6 17.5999998,16.1 13.7,0.8 36.5,4.800001 55.2,21.600001 5.7,5.099988 14.1,6.099988 20.9,2.599998 8.300005,-4.199998 19.000005,-11.199998 27.700005,-22.399999 5,-6.5 5.5,-15.5 0.8,-22.2 -4.4,-6.3 -9.3,-15.9 -10.3,-28.7 -0.4,-4.5 -2.2,-8.7 -5.4,-11.8 -4.1,-4.1 -10.300005,-9.4000002 -17.600005,-13.0000002 -5.3,-2.50000003 -11.5,-2.50000003 -16.7,0.1 z"
   id="path1"
   style="fill:#f26522;fill-opacity:0;stroke:#000000;stroke-width:3;stroke-dasharray:none;stroke-opacity:1" /><path
   fill="#d95d98"
   d="m -281.11532,24.964041 c 0,0 -6,-3.4 -9.4,-12.7 -3.4,-9.3000002 -18.09999,-10.7000002 -26.79999,-3.4000002 -8.7,7.4000002 -49.6,8.7000002 -66.4,16.1000002 -16.8,7.4 -47.5,10.1 -46.5,28.8 1,18.7 16.4,21.5 19,15.4 2.7,-6 35,5.4 44,12.100001 9,6.7 36.5,24.099988 59.3,18.799998 22.79999,-5.299998 10.09999,-21.499999 12.69999,-29.499999 2.8,-8.1 23.5,-32.9 14.1,-45.6 z"
   id="path4"
   style="fill:#d95d98;fill-opacity:0;stroke:#000000;stroke-width:3;stroke-dasharray:none;stroke-opacity:1" /><path
   fill="#4eba6e"
   d="m 20.084685,395.46403 c 0,0 -21.6999998,-33 -0.7,-87.4 21,-54.4 67.6,-85.6 77.8,-80.4 10.200005,5.2 -4,38.1 14.700005,56.7 18.7,18.6 13.7,14.9 0.8,48.1 -12.900005,33.3 -10.7,53.8 -41.800005,61.7 -31.1,7.9 -40.3,14.9 -50.8,1.3 z"
   id="path7"
   style="fill:#4eba6e;fill-opacity:0;stroke:#000000;stroke-width:3;stroke-dasharray:none;stroke-opacity:1" /><path
   fill="#f8be37"
   d="m 291.08469,369.06403 c 0,0 24.1,-16.1 29.5,-44.9 5.4,-28.8 -3.4,-49.6 -10.7,-51.6 -7.4,-2 -22.1,6 -27.5,3.4 -5.4,-2.7 -8.9,-14.3 -27.7,-14.3 -18.8,0 -30.6,27.4 -36.7,29.9 -6,2.5 -27.8,-7.9 -29.7,0 -1.6,6.9 3.9,52.4 33.4,66.9 5.8,2.9 12.9,0.5 15.8,-5.3 2.5,-5 7.3,-10.2 16.2,-10.2 17.3,-0.2 -2.8,41.5 37.4,26.1 z"
   id="path10"
   style="fill:#f8be37;fill-opacity:0;stroke:#000000;stroke-width:3;stroke-dasharray:none;stroke-opacity:1" /><path
   fill="#1b86c8"
   d="m 211.78469,291.56403 v 0 c 0,0 0.1,0 0,0 z"
   id="path12" /><path
   fill="#42bfb9"
   d="m -273.81532,273.46403 c 0,0 -7.7,-22.1 -28.6,-24.5 -20.89999,-2.4 -57.09999,9.7 -82.89999,3.8 -25.9,-5.9 -41.2,9 -37,61.2 4.2,52.2 5.8,73.4 37.7,78.9 31.9,5.5 84.69999,-16.5 102.69999,-43.4 18,-26.9 12.6,-67.4 8.1,-76 z"
   id="path14"
   style="fill:#42bfb9;fill-opacity:0;stroke:#000000;stroke-width:3;stroke-dasharray:none;stroke-opacity:1" /><path
   fill="#955ba5"
   d="m 200.58469,33.164041 c 0,0 3.4,-18.8 28.8,-25.5000002 25.4,-6.70000003 71.1,-6.70000003 77.1,9.4000002 6,16.1 8.6,77.100001 -17.5,83.799999 -26.1,6.69999 -32.1,-29.499999 -41.5,-36.899999 -9.3,-7.3 -54.3,-0.6 -46.9,-30.8 z"
   id="path17"
   style="fill:#955ba5;fill-opacity:0;stroke:#000000;stroke-width:3;stroke-dasharray:none;stroke-opacity:1" /><path
   fill="#f15d4f"
   d="m -84.815315,51.064041 c 0,0 -23.500005,-12.2 -34.900005,-34.3 -11.4,-22.1000002 -30.2,-38.8 -52.3,-34.1 -22.1,4.7 -33.5,44.5 -19.4,44.5 14.1,0 12.1,12.2 12.1,12.2 0,0 -28.1,24.5 -23.8,47.100001 4.3,22.699988 32.4,42.899988 58.9,34.899988 26.5,-7.8 96.900005,-46.999989 59.400005,-70.299989 z"
   id="path19"
   style="fill:#f15d4f;fill-opacity:0;stroke:#000000;stroke-width:3;stroke-dasharray:none;stroke-opacity:1" /><path
   fill="#2e95d2"
   d="m -67.415315,265.16403 c 0,0 -6.8,-7.4 -22.8,-6.7 -16.000005,0.7 -33.100005,-9 -41.500005,-21.5 -12.5,-18.5 -73.1,-6.7 -61.7,33.5 11.4,40.2 -12.7,57 -16.1,92.5 -3.4,35.5 59.7,59 74.4,28.2 14.7,-30.8 26.9,-67.7 52.600005,-79.8 25.8,-12 33.9,-24.7 15.1,-46.2 z"
   id="path22"
   style="fill:#2e95d2;fill-opacity:0;stroke:#000000;stroke-width:3;stroke-dasharray:none;stroke-opacity:1" />
</svg>
