<?xml version="1.0" encoding="UTF-8" standalone="no"?>
<!-- Generator: Adobe Illustrator 18.0.0, SVG Export Plug-In . SVG Version: 6.00 Build 0)  -->

<svg
   version="1.1"
   id="Layer_1"
   x="0px"
   y="0px"
   viewBox="0 0 132.5157 144.27536"
   enable-background="new 0 0 841.9 595.3"
   xml:space="preserve"
   sodipodi:docname="hold_2.svg"
   width="132.5157"
   height="144.27536"
   inkscape:version="1.4.1 (93de688d07, 2025-03-30)"
   xmlns:inkscape="http://www.inkscape.org/namespaces/inkscape"
   xmlns:sodipodi="http://sodipodi.sourceforge.net/DTD/sodipodi-0.dtd"
   xmlns="http://www.w3.org/2000/svg"
   xmlns:svg="http://www.w3.org/2000/svg"><defs
   id="defs26">
	
	
	
	
	
	
	
	

		
		
		
	
		
		
		
		
	
		
		
		
		
	
		
		
		
		
		
	
		
		
		
		
	
		
		
		
	
		
		
		
		
	
		
		
		
		
	
			
			
		
			
			
		
			
			
		
			
			
		
			
			
		
			
			
		
			
			
		
			
			
		
			
			
		</defs><sodipodi:namedview
   id="namedview26"
   pagecolor="#505050"
   bordercolor="#eeeeee"
   borderopacity="1"
   inkscape:showpageshadow="0"
   inkscape:pageopacity="0"
   inkscape:pagecheckerboard="0"
   inkscape:deskcolor="#505050"
   inkscape:zoom="0.97933817"
   inkscape:cx="151.12247"
   inkscape:cy="213.91998"
   inkscape:window-width="1536"
   inkscape:window-height="792"
   inkscape:window-x="0"
   inkscape:window-y="0"
   inkscape:window-maximized="1"
   inkscape:current-layer="Layer_1" />
<path
   fill="#f26522"
   d="m 279.3538,23.091769 c -10.7,5.3 -33.1,15.5 -56.8,20.5 -7.6,1.6 -13.5,7.5 -14.8,15.2 -1.1,6.2 -1.7,14 -0.6,22 1.2,8.9 8.6,15.6 17.6,16.1 13.7,0.8 36.5,4.800001 55.2,21.600001 5.7,5.09999 14.1,6.09999 20.9,2.6 8.3,-4.2 19,-11.2 27.7,-22.400001 5,-6.5 5.5,-15.5 0.8,-22.2 -4.4,-6.3 -9.3,-15.9 -10.3,-28.7 -0.4,-4.5 -2.2,-8.7 -5.4,-11.8 -4.1,-4.1 -10.3,-9.4 -17.6,-13 -5.3,-2.5 -11.5,-2.5 -16.7,0.1 z"
   id="path1"
   style="fill:#f26522;fill-opacity:0;stroke:#000000;stroke-width:3;stroke-dasharray:none;stroke-opacity:1" /><path
   fill="#d95d98"
   d="m -76.046204,44.591769 c 0,0 -6,-3.4 -9.4,-12.7 -3.4,-9.3 -18.099996,-10.7 -26.799996,-3.4 -8.7,7.4 -49.6,8.7 -66.4,16.1 -16.8,7.4 -47.5,10.1 -46.5,28.8 1,18.7 16.4,21.5 19,15.4 2.7,-6 35,5.4 44,12.100001 9,6.7 36.5,24.09999 59.3,18.8 22.799996,-5.3 10.099996,-21.500001 12.699996,-29.500001 2.8,-8.1 23.5,-32.9 14.1,-45.6 z"
   id="path4"
   style="fill:#d95d98;fill-opacity:0;stroke:#000000;stroke-width:3;stroke-dasharray:none;stroke-opacity:1" /><path
   fill="#4eba6e"
   d="m 225.1538,415.09176 c 0,0 -21.7,-33 -0.7,-87.4 21,-54.4 67.6,-85.6 77.8,-80.4 10.2,5.2 -4,38.1 14.7,56.7 18.7,18.6 13.7,14.9 0.8,48.1 -12.9,33.3 -10.7,53.8 -41.8,61.7 -31.1,7.9 -40.3,14.9 -50.8,1.3 z"
   id="path7"
   style="fill:#4eba6e;fill-opacity:0;stroke:#000000;stroke-width:3;stroke-dasharray:none;stroke-opacity:1" /><path
   fill="#f8be37"
   d="m 496.1538,388.69176 c 0,0 24.1,-16.1 29.5,-44.9 5.4,-28.8 -3.4,-49.6 -10.7,-51.6 -7.4,-2 -22.1,6 -27.5,3.4 -5.4,-2.7 -8.9,-14.3 -27.7,-14.3 -18.8,0 -30.6,27.4 -36.7,29.9 -6,2.5 -27.8,-7.9 -29.7,0 -1.6,6.9 3.9,52.4 33.4,66.9 5.8,2.9 12.9,0.5 15.8,-5.3 2.5,-5 7.3,-10.2 16.2,-10.2 17.3,-0.2 -2.8,41.5 37.4,26.1 z"
   id="path10"
   style="fill:#f8be37;fill-opacity:0;stroke:#000000;stroke-width:3;stroke-dasharray:none;stroke-opacity:1" /><path
   fill="#1b86c8"
   d="m 416.8538,311.19176 v 0 c 0,0 0.1,0 0,0 z"
   id="path12" /><path
   fill="#42bfb9"
   d="m -68.746204,293.09176 c 0,0 -7.7,-22.1 -28.6,-24.5 -20.899996,-2.4 -57.099996,9.7 -82.899996,3.8 -25.9,-5.9 -41.2,9 -37,61.2 4.2,52.2 5.8,73.4 37.7,78.9 31.9,5.5 84.699996,-16.5 102.699996,-43.4 18,-26.9 12.6,-67.4 8.1,-76 z"
   id="path14"
   style="fill:#42bfb9;fill-opacity:0;stroke:#000000;stroke-width:3;stroke-dasharray:none;stroke-opacity:1" /><path
   fill="#955ba5"
   d="m 405.6538,52.791769 c 0,0 3.4,-18.8 28.8,-25.5 25.4,-6.7 71.1,-6.7 77.1,9.4 6,16.1 8.6,77.100001 -17.5,83.800001 -26.1,6.69999 -32.1,-29.500001 -41.5,-36.900001 -9.3,-7.3 -54.3,-0.6 -46.9,-30.8 z"
   id="path17"
   style="fill:#955ba5;fill-opacity:0;stroke:#000000;stroke-width:3;stroke-dasharray:none;stroke-opacity:1" /><path
   fill="#f15d4f"
   d="m 120.2538,70.691769 c 0,0 -23.500004,-12.2 -34.900004,-34.3 -11.4,-22.1 -30.2,-38.8000001 -52.3,-34.1000001 -22.1,4.7 -33.49999965,44.5000001 -19.4,44.5000001 14.1,0 12.1,12.2 12.1,12.2 0,0 -28.0999996,24.5 -23.7999996,47.100001 4.3,22.69999 32.3999996,42.89999 58.8999996,34.89999 26.5,-7.8 96.900004,-46.999991 59.400004,-70.299991 z"
   id="path19"
   style="fill:#f15d4f;fill-opacity:0;stroke:#000000;stroke-width:3;stroke-dasharray:none;stroke-opacity:1" /><path
   fill="#2e95d2"
   d="m 137.6538,284.79176 c 0,0 -6.8,-7.4 -22.8,-6.7 -16.000004,0.7 -33.100004,-9 -41.500004,-21.5 -12.5,-18.5 -73.09999965,-6.7 -61.7,33.5 11.4,40.2 -12.6999996,57 -16.0999996,92.5 -3.4,35.5 59.6999996,59 74.3999996,28.2 14.7,-30.8 26.9,-67.7 52.600004,-79.8 25.8,-12 33.9,-24.7 15.1,-46.2 z"
   id="path22"
   style="fill:#2e95d2;fill-opacity:0;stroke:#000000;stroke-width:3;stroke-dasharray:none;stroke-opacity:1" />
</svg>
