<?xml version="1.0" encoding="UTF-8" standalone="no"?>
<!-- Generator: Adobe Illustrator 18.0.0, SVG Export Plug-In . SVG Version: 6.00 Build 0)  -->

<svg
   version="1.1"
   id="Layer_1"
   x="0px"
   y="0px"
   viewBox="0 0 155.51023 180.00722"
   enable-background="new 0 0 841.9 595.3"
   xml:space="preserve"
   sodipodi:docname="hold_6.svg"
   width="155.51024"
   height="180.00723"
   inkscape:version="1.4.1 (93de688d07, 2025-03-30)"
   xmlns:inkscape="http://www.inkscape.org/namespaces/inkscape"
   xmlns:sodipodi="http://sodipodi.sourceforge.net/DTD/sodipodi-0.dtd"
   xmlns="http://www.w3.org/2000/svg"
   xmlns:svg="http://www.w3.org/2000/svg"><defs
   id="defs26">
	
	
	
	
	
	
	
	

		
		
		
	
		
		
		
		
	
		
		
		
		
	
		
		
		
		
		
	
		
		
		
		
	
		
		
		
	
		
		
		
		
	
		
		
		
		
	
			
			
		
			
			
		
			
			
		
			
			
		
			
			
		
			
			
		
			
			
		
			
			
		
			
			
		</defs><sodipodi:namedview
   id="namedview26"
   pagecolor="#505050"
   bordercolor="#eeeeee"
   borderopacity="1"
   inkscape:showpageshadow="0"
   inkscape:pageopacity="0"
   inkscape:pagecheckerboard="0"
   inkscape:deskcolor="#505050"
   inkscape:zoom="0.97933817"
   inkscape:cx="157.24905"
   inkscape:cy="-32.164579"
   inkscape:window-width="1536"
   inkscape:window-height="792"
   inkscape:window-x="0"
   inkscape:window-y="0"
   inkscape:window-maximized="1"
   inkscape:current-layer="Layer_1" />
<path
   fill="#f26522"
   d="m 285.43174,-223.47181 c -10.7,5.3 -33.1,15.5 -56.8,20.5 -7.6,1.6 -13.5,7.5 -14.8,15.2 -1.1,6.2 -1.7,14 -0.6,22 1.2,8.9 8.6,15.6 17.6,16.1 13.7,0.8 36.5,4.8 55.2,21.6 5.7,5.09999 14.1,6.09999 20.9,2.6 8.3,-4.2 19,-11.2 27.7,-22.4 5,-6.5 5.5,-15.5 0.8,-22.2 -4.4,-6.3 -9.3,-15.9 -10.3,-28.7 -0.4,-4.5 -2.2,-8.7 -5.4,-11.8 -4.1,-4.1 -10.3,-9.4 -17.6,-13 -5.3,-2.5 -11.5,-2.5 -16.7,0.1 z"
   id="path1"
   style="fill:#f26522;fill-opacity:0;stroke:#000000;stroke-width:3;stroke-dasharray:none;stroke-opacity:1" /><path
   fill="#d95d98"
   d="m -69.968267,-201.97181 c 0,0 -6,-3.4 -9.4,-12.7 -3.4,-9.3 -18.09999,-10.7 -26.799993,-3.4 -8.7,7.4 -49.6,8.7 -66.4,16.1 -16.8,7.4 -47.5,10.1 -46.5,28.8 1,18.7 16.4,21.5 19,15.4 2.7,-6 35,5.4 44,12.1 9,6.7 36.5,24.09999 59.300003,18.8 22.79999,-5.3 10.09999,-21.5 12.69999,-29.5 2.8,-8.1 23.5,-32.9 14.1,-45.6 z"
   id="path4"
   style="fill:#d95d98;fill-opacity:0;stroke:#000000;stroke-width:3;stroke-dasharray:none;stroke-opacity:1" /><path
   fill="#4eba6e"
   d="m 231.23174,168.52818 c 0,0 -21.7,-33 -0.7,-87.399995 21,-54.4 67.6,-85.5999994 77.8,-80.39999938 10.2,5.19999998 -4,38.09999938 14.7,56.69999938 18.7,18.6 13.7,14.9 0.8,48.100005 -12.9,33.29999 -10.7,53.79999 -41.8,61.69999 -31.1,7.9 -40.3,14.9 -50.8,1.3 z"
   id="path7"
   style="fill:#4eba6e;fill-opacity:0;stroke:#000000;stroke-width:3;stroke-dasharray:none;stroke-opacity:1" /><path
   fill="#f8be37"
   d="m 502.23174,142.12818 c 0,0 24.1,-16.1 29.5,-44.899995 5.4,-28.8 -3.4,-49.6 -10.7,-51.6 -7.4,-2 -22.1,6 -27.5,3.4 -5.4,-2.7 -8.9,-14.3 -27.7,-14.3 -18.8,0 -30.6,27.4 -36.7,29.9 -6,2.5 -27.8,-7.9 -29.7,0 -1.6,6.9 3.9,52.400005 33.4,66.899995 5.8,2.9 12.9,0.5 15.8,-5.3 2.5,-5 7.3,-10.19999 16.2,-10.19999 17.3,-0.2 -2.8,41.49999 37.4,26.09999 z"
   id="path10"
   style="fill:#f8be37;fill-opacity:0;stroke:#000000;stroke-width:3;stroke-dasharray:none;stroke-opacity:1" /><path
   fill="#1b86c8"
   d="m 422.93174,64.628185 v 0 c 0,0 0.1,0 0,0 z"
   id="path12" /><path
   fill="#42bfb9"
   d="m -62.668267,46.528185 c 0,0 -7.7,-22.1 -28.6,-24.5 -20.899993,-2.4 -57.099993,9.7 -82.899993,3.8 -25.9,-5.9 -41.2,9 -37,61.2 4.2,52.199995 5.8,73.399995 37.7,78.899995 31.9,5.5 84.699993,-16.5 102.699993,-43.4 18,-26.899995 12.6,-67.399995 8.1,-75.999995 z"
   id="path14"
   style="fill:#42bfb9;fill-opacity:0;stroke:#000000;stroke-width:3;stroke-dasharray:none;stroke-opacity:1" /><path
   fill="#955ba5"
   d="m 411.73174,-193.77181 c 0,0 3.4,-18.8 28.8,-25.5 25.4,-6.7 71.1,-6.7 77.1,9.4 6,16.1 8.6,77.1 -17.5,83.8 -26.1,6.69999 -32.1,-29.5 -41.5,-36.9 -9.3,-7.3 -54.3,-0.6 -46.9,-30.8 z"
   id="path17"
   style="fill:#955ba5;fill-opacity:0;stroke:#000000;stroke-width:3;stroke-dasharray:none;stroke-opacity:1" /><path
   fill="#f15d4f"
   d="m 126.33174,-175.87181 c 0,0 -23.50001,-12.2 -34.900007,-34.3 -11.4,-22.1 -30.2,-38.8 -52.3,-34.1 -22.1,4.7 -33.5000003,44.5 -19.4,44.5 14.1,0 12.1,12.2 12.1,12.2 0,0 -28.1000003,24.5 -23.8000003,47.1 4.3000003,22.69999 32.4000003,42.899991 58.9000003,34.89999 26.5,-7.8 96.900007,-46.99999 59.400007,-70.29999 z"
   id="path19"
   style="fill:#f15d4f;fill-opacity:0;stroke:#000000;stroke-width:3;stroke-dasharray:none;stroke-opacity:1" /><path
   fill="#2e95d2"
   d="m 143.73174,38.228185 c 0,0 -6.8,-7.4 -22.8,-6.7 -16.00001,0.7 -33.100007,-9 -41.500007,-21.5 -12.5,-18.4999994 -73.1000003,-6.6999994 -61.7,33.5 11.4,40.2 -12.7000003,57.000005 -16.1000003,92.499995 -3.4,35.5 59.7000003,59 74.4000003,28.2 14.7,-30.8 26.899997,-67.699995 52.600007,-79.799995 25.8,-12 33.9,-24.7 15.1,-46.2 z"
   id="path22"
   style="fill:#2e95d2;fill-opacity:0;stroke:#000000;stroke-width:3;stroke-dasharray:none;stroke-opacity:1" />
</svg>
