<?xml version="1.0" encoding="UTF-8" standalone="no"?>
<svg
   width="630"
   height="630"
   viewBox="0 0 630 630"
   fill="none"
   version="1.1"
   id="svg6"
   sodipodi:docname="logo.svg"
   inkscape:version="1.4.1 (93de688d07, 2025-03-30)"
   xmlns:inkscape="http://www.inkscape.org/namespaces/inkscape"
   xmlns:sodipodi="http://sodipodi.sourceforge.net/DTD/sodipodi-0.dtd"
   xmlns="http://www.w3.org/2000/svg"
   xmlns:svg="http://www.w3.org/2000/svg">
  <sodipodi:namedview
     id="namedview6"
     pagecolor="#505050"
     bordercolor="#eeeeee"
     borderopacity="1"
     inkscape:showpageshadow="0"
     inkscape:pageopacity="0"
     inkscape:pagecheckerboard="0"
     inkscape:deskcolor="#505050"
     inkscape:zoom="0.92539683"
     inkscape:cx="314.45969"
     inkscape:cy="315"
     inkscape:window-width="1536"
     inkscape:window-height="792"
     inkscape:window-x="0"
     inkscape:window-y="0"
     inkscape:window-maximized="1"
     inkscape:current-layer="g5" />
  <g
     clip-path="url(#clip0_1_48)"
     id="g5">
    <rect
       width="630"
       height="630"
       fill="black"
       id="rect1" />
    <circle
       cx="315"
       cy="315"
       r="315"
       fill="black"
       id="circle1" />
    <path
       fill-rule="evenodd"
       clip-rule="evenodd"
       d="M265.701 72H202.766V393H265.701V72ZM445.065 104.461H508V393H445.065V104.461ZM122 114.379H184.935V393H122V114.379ZM427.234 174.792H364.299V393H427.234V174.792ZM283.533 131.511H346.467V393H283.533V131.511Z"
       fill="url(#paint0_linear_1_48)"
       id="path1" />
    <path
       d="M 348.28961,181.93236 282.09794,130.7918 h 66.19167 z"
       fill="#000000"
       stroke="#000000"
       id="path2"
       sodipodi:nodetypes="cccc"
       style="stroke-width:1.06652" />
    <path
       d="m 507.97567,101.76135 -62.95066,57.2013 v -57.2013 z"
       fill="#000000"
       stroke="#000000"
       id="path3"
       style="stroke-width:1.02881" />
    <path
       d="M263 72L202 126V72H263Z"
       fill="black"
       stroke="black"
       id="path4" />
    <path
       d="M195.44 504V452.9H211.89C215.063 452.9 217.817 453.53 220.15 454.79C222.483 456.003 224.28 457.73 225.54 459.97C226.847 462.21 227.5 464.87 227.5 467.95C227.5 470.983 226.847 473.643 225.54 475.93C224.28 478.17 222.483 479.92 220.15 481.18C217.817 482.393 215.063 483 211.89 483H201.74V504H195.44ZM201.74 477.33H211.89C214.643 477.33 216.837 476.49 218.47 474.81C220.15 473.083 220.99 470.797 220.99 467.95C220.99 465.057 220.15 462.77 218.47 461.09C216.837 459.41 214.643 458.57 211.89 458.57H201.74V477.33ZM243.433 516.6L249.103 501.62L234.823 465.5H241.823L250.783 489.3C251.109 490.093 251.413 491.05 251.693 492.17C251.973 493.243 252.206 494.153 252.393 494.9C252.579 494.153 252.813 493.243 253.093 492.17C253.373 491.05 253.653 490.093 253.933 489.3L262.333 465.5H269.123L250.153 516.6H243.433ZM298.145 504C294.832 504 292.242 503.113 290.375 501.34C288.555 499.567 287.645 497.07 287.645 493.85V471.24H276.795V465.5H287.645V454.65H293.945V465.5H309.345V471.24H293.945V493.85C293.945 496.79 295.345 498.26 298.145 498.26H308.645V504H298.145ZM321.358 504V452.9H327.658V465.5V472.85H328.988L327.658 474.32C327.658 471.287 328.568 468.953 330.388 467.32C332.208 465.64 334.728 464.8 337.948 464.8C341.821 464.8 344.901 465.99 347.188 468.37C349.475 470.75 350.618 473.993 350.618 478.1V504H344.318V478.8C344.318 476.047 343.571 473.923 342.078 472.43C340.631 470.89 338.648 470.12 336.128 470.12C333.515 470.12 331.438 470.937 329.898 472.57C328.405 474.203 327.658 476.513 327.658 479.5V504H321.358ZM377.891 504.7C374.764 504.7 372.034 504.093 369.701 502.88C367.414 501.62 365.641 499.87 364.381 497.63C363.121 495.343 362.491 492.683 362.491 489.65V467.25C362.491 464.17 363.121 461.51 364.381 459.27C365.641 457.03 367.414 455.303 369.701 454.09C372.034 452.83 374.764 452.2 377.891 452.2C381.064 452.2 383.794 452.83 386.081 454.09C388.367 455.303 390.141 457.03 391.401 459.27C392.661 461.51 393.291 464.17 393.291 467.25V489.65C393.291 492.683 392.661 495.343 391.401 497.63C390.141 499.87 388.344 501.62 386.011 502.88C383.724 504.093 381.017 504.7 377.891 504.7ZM377.891 499.31C380.691 499.31 382.931 498.423 384.611 496.65C386.337 494.83 387.201 492.497 387.201 489.65V467.25C387.201 464.403 386.337 462.093 384.611 460.32C382.931 458.5 380.691 457.59 377.891 457.59C375.091 457.59 372.827 458.5 371.101 460.32C369.421 462.093 368.581 464.403 368.581 467.25V489.65C368.581 492.497 369.421 494.83 371.101 496.65C372.827 498.423 375.091 499.31 377.891 499.31ZM377.891 482.58C376.631 482.58 375.604 482.183 374.811 481.39C374.064 480.597 373.691 479.547 373.691 478.24C373.691 476.98 374.064 475.977 374.811 475.23C375.604 474.437 376.631 474.04 377.891 474.04C379.151 474.04 380.154 474.437 380.901 475.23C381.694 475.977 382.091 476.98 382.091 478.24C382.091 479.547 381.694 480.597 380.901 481.39C380.154 482.183 379.151 482.58 377.891 482.58ZM410.133 516.6V510.86H422.383C424.343 510.86 425.767 510.417 426.653 509.53C427.587 508.643 428.053 507.267 428.053 505.4V500.5L428.193 493.5H426.933L428.123 492.45C428.123 495.25 427.19 497.467 425.323 499.1C423.457 500.733 420.96 501.55 417.833 501.55C413.867 501.55 410.74 500.267 408.453 497.7C406.167 495.087 405.023 491.587 405.023 487.2V479.08C405.023 474.693 406.167 471.217 408.453 468.65C410.74 466.083 413.867 464.8 417.833 464.8C420.96 464.8 423.457 465.617 425.323 467.25C427.19 468.883 428.123 471.1 428.123 473.9L426.933 472.85H428.123V465.5H434.353V505.4C434.353 508.853 433.28 511.583 431.133 513.59C429.033 515.597 426.093 516.6 422.313 516.6H410.133ZM419.723 496.09C422.337 496.09 424.39 495.273 425.883 493.64C427.377 492.007 428.123 489.743 428.123 486.85V479.5C428.123 476.607 427.377 474.343 425.883 472.71C424.39 471.077 422.337 470.26 419.723 470.26C417.063 470.26 414.987 471.053 413.493 472.64C412.047 474.227 411.323 476.513 411.323 479.5V486.85C411.323 489.837 412.047 492.123 413.493 493.71C414.987 495.297 417.063 496.09 419.723 496.09Z"
       fill="white"
       id="path5" />
  </g>
  <defs
     id="defs6">
    <linearGradient
       id="paint0_linear_1_48"
       x1="147.174"
       y1="156.758"
       x2="437.156"
       y2="373.535"
       gradientUnits="userSpaceOnUse">
      <stop
         stop-color="#832CBD"
         id="stop5" />
      <stop
         offset="1"
         stop-color="#871F91"
         id="stop6" />
    </linearGradient>
    <clipPath
       id="clip0_1_48">
      <rect
         width="630"
         height="630"
         fill="white"
         id="rect6" />
    </clipPath>
  </defs>
</svg>
